<svg width="2439" height="743" viewBox="0 0 2439 743" fill="none" xmlns="http://www.w3.org/2000/svg">
<path d="M204 340.75V309.5V278.25H235.25H266.5H297.75H329H360.25H391.5H422.75V309.5H391.5V340.75H360.25V372H329V403.25H297.75V434.5H266.5V465.75H297.75H329H360.25H391.5V434.5H422.75V465.75V497H391.5H360.25H329H297.75H266.5H235.25H204V465.75V434.5H235.25V403.25H266.5V372H297.75V340.75H329V309.5H297.75H266.5H235.25V340.75H204ZM547.75 497H516.5H485.25V465.75H454V434.5H422.75V403.25V372V340.75H454V309.5H485.25V278.25H516.5H547.75H579V309.5H610.25V340.75H641.5V372V403.25V434.5H610.25V465.75H579V497H547.75ZM547.75 465.75V434.5H579V403.25V372V340.75H547.75V309.5H516.5V340.75H485.25V372V403.25V434.5H516.5V465.75H547.75ZM860.25 497H829H797.75V465.75H766.5V434.5H797.75V403.25V372V340.75H766.5V309.5H735.25H704V340.75V372V403.25V434.5V465.75H735.25H766.5V497H735.25H704H672.75V465.75H641.5V434.5V403.25V372V340.75V309.5H672.75V278.25H704H735.25H766.5H797.75V247V215.75H766.5V184.5H797.75H829V153.25H860.25V184.5V215.75V247V278.25V309.5V340.75V372V403.25V434.5V465.75H891.5V497H860.25ZM985.25 372H1016.5V403.25H985.25H954H922.75H891.5V372H922.75H954H985.25ZM1922.75 497H1891.5H1860.25V465.75V434.5H1829V403.25H1797.75V434.5V465.75H1829V497H1797.75H1766.5H1735.25H1704V465.75H1735.25V434.5V403.25V372V340.75V309.5V278.25V247H1704V215.75H1735.25H1766.5V184.5H1797.75V215.75V247V278.25V309.5V340.75V372H1829V340.75H1860.25V372V403.25H1891.5V434.5H1922.75V465.75H1954V497H1922.75ZM1860.25 340.75V309.5V278.25H1891.5H1922.75V309.5H1891.5V340.75H1860.25ZM2047.75 497H2016.5H1985.25H1954V465.75H1985.25V434.5V403.25V372H1954V340.75H1985.25V309.5H2016.5H2047.75V340.75V372V403.25V434.5V465.75H2079V497H2047.75ZM2016.5 278.25H1985.25V247V215.75H2016.5H2047.75V247V278.25H2016.5ZM2172.75 497H2141.5V465.75H2110.25V434.5V403.25V372V340.75H2079V309.5H2110.25V278.25H2141.5V247H2172.75V278.25V309.5H2204H2235.25V340.75H2204H2172.75V372V403.25V434.5V465.75H2204V497H2172.75ZM2204 465.75V434.5H2235.25V465.75H2204Z" fill="white"/>
<path d="M1141.5 465.75H1172.75V497H1141.5H1110.25H1079H1047.75V465.75H1016.5V434.5V403.25V372V340.75H1047.75V309.5H1079V278.25H1110.25H1141.5H1172.75V309.5H1141.5H1110.25V340.75H1141.5H1172.75V309.5H1204V340.75V372H1172.75H1141.5H1110.25H1079V403.25V434.5V465.75H1110.25H1141.5ZM1172.75 465.75V434.5H1204V465.75H1172.75ZM1204 434.5V403.25H1235.25V434.5H1204ZM1454 497H1422.75H1391.5V465.75V434.5V403.25V372V340.75V309.5H1360.25V340.75H1329V372V403.25V434.5V465.75H1360.25V497H1329H1297.75H1266.5H1235.25V465.75H1266.5V434.5V403.25V372V340.75H1235.25V309.5H1266.5V278.25H1297.75H1329V309.5H1360.25V278.25H1391.5H1422.75V309.5H1454V340.75V372V403.25V434.5V465.75H1485.25V497H1454ZM1454 372V340.75H1485.25V372H1454ZM1579 497H1547.75V465.75V434.5H1516.5V403.25V372V340.75H1485.25V309.5H1516.5V278.25H1547.75V309.5V340.75V372H1579V403.25H1610.25V434.5V465.75V497H1579ZM1610.25 403.25V372V340.75H1641.5V372V403.25H1610.25ZM1641.5 340.75V309.5H1610.25V278.25H1641.5H1672.75H1704V309.5H1672.75V340.75H1641.5Z" fill="#FFD05B"/>
</svg>
