<svg width="1000" height="1000" viewBox="0 0 1000 1000" fill="none" xmlns="http://www.w3.org/2000/svg">
<rect width="1000" height="1000" fill="#242424"/>
<path d="M267 810V758.333H215.333V551.667H267V603.333H318.667V758.333H370.333V810H267ZM215.333 551.667H163.667V500H112V448.333H215.333V551.667ZM215.333 448.333V241.667H267V190H370.333V241.667H318.667V396.667H267V448.333H215.333Z" fill="white"/>
<path d="M628.667 810V758.333H680.333V603.333H732V551.667H783.667V758.333H732V810H628.667ZM783.667 551.667V448.333H887V500H835.333V551.667H783.667ZM783.667 448.333H732V396.667H680.333V241.667H628.667V190H732V241.667H783.667V448.333Z" fill="white"/>
<path d="M390.5 546.375H406.125V562H390.5H374.875H359.25H343.625V546.375H328V530.75V515.125V499.5V483.875H343.625V468.25H359.25V452.625H374.875H390.5H406.125V468.25H390.5H374.875V483.875H390.5H406.125V468.25H421.75V483.875V499.5H406.125H390.5H374.875H359.25V515.125V530.75V546.375H374.875H390.5ZM406.125 546.375V530.75H421.75V546.375H406.125ZM421.75 530.75V515.125H437.375V530.75H421.75ZM546.75 562H531.125H515.5V546.375V530.75V515.125V499.5V483.875V468.25H499.875V483.875H484.25V499.5V515.125V530.75V546.375H499.875V562H484.25H468.625H453H437.375V546.375H453V530.75V515.125V499.5V483.875H437.375V468.25H453V452.625H468.625H484.25V468.25H499.875V452.625H515.5H531.125V468.25H546.75V483.875V499.5V515.125V530.75V546.375H562.375V562H546.75ZM546.75 499.5V483.875H562.375V499.5H546.75ZM609.25 562H593.625V546.375V530.75H578V515.125V499.5V483.875H562.375V468.25H578V452.625H593.625V468.25V483.875V499.5H609.25V515.125H624.875V530.75V546.375V562H609.25ZM624.875 515.125V499.5V483.875H640.5V499.5V515.125H624.875ZM640.5 483.875V468.25H624.875V452.625H640.5H656.125H671.75V468.25H656.125V483.875H640.5Z" fill="#FFD05B"/>
</svg>
